<svg width="60" height="25" viewBox="0 0 60 25" fill="none" xmlns="http://www.w3.org/2000/svg">
<path d="M20.6763 18.4744C21.0144 18.9299 21.3836 19.2507 21.7838 19.4371C22.191 19.6234 22.636 19.7165 23.1191 19.7165C24.1058 19.7165 24.8614 19.3681 25.3858 18.6711C25.9103 17.9742 26.1725 16.9357 26.1725 15.5556C26.1725 14.2721 25.9379 13.3302 25.4687 12.7299C25.0063 12.1226 24.3439 11.819 23.4813 11.819C22.881 11.819 22.3566 11.957 21.908 12.233C21.4664 12.509 21.0558 12.8989 20.6763 13.4026V18.4744ZM20.6763 12.026C21.1179 11.5154 21.6148 11.1083 22.1668 10.8046C22.7257 10.501 23.3675 10.3492 24.092 10.3492C24.7062 10.3492 25.2582 10.4665 25.7481 10.7011C26.245 10.9357 26.6659 11.2773 27.0109 11.7258C27.3559 12.1675 27.6181 12.7057 27.7975 13.3405C27.9839 13.9754 28.077 14.6896 28.077 15.4831C28.077 16.3319 27.9735 17.1047 27.7665 17.8017C27.5595 18.4986 27.2593 19.0955 26.866 19.5923C26.4796 20.0822 26.0069 20.4652 25.448 20.7412C24.889 21.0104 24.2611 21.1449 23.5641 21.1449C22.8741 21.1449 22.291 21.0173 21.8149 20.7619C21.3457 20.4997 20.9351 20.1305 20.5832 19.6544L20.49 20.6067C20.4348 20.8689 20.2761 21 20.0139 21H18.8236V5.75354H20.6763V12.026ZM36.0898 16.2801C35.2411 16.3077 34.5165 16.3767 33.9162 16.4871C33.3228 16.5906 32.8363 16.7286 32.4568 16.9012C32.0842 17.0737 31.8116 17.2772 31.6391 17.5118C31.4735 17.7465 31.3907 18.0087 31.3907 18.2985C31.3907 18.5745 31.4355 18.8126 31.5252 19.0127C31.6149 19.2128 31.7357 19.3784 31.8875 19.5095C32.0462 19.6337 32.2291 19.7269 32.4361 19.789C32.65 19.8442 32.8777 19.8718 33.1192 19.8718C33.4435 19.8718 33.7403 19.8407 34.0094 19.7786C34.2785 19.7096 34.5304 19.613 34.765 19.4888C35.0065 19.3646 35.2342 19.2162 35.4481 19.0437C35.6689 18.8712 35.8828 18.6746 36.0898 18.4537V16.2801ZM30.1382 11.995C30.7179 11.436 31.3424 11.0186 32.0117 10.7425C32.681 10.4665 33.4228 10.3285 34.2371 10.3285C34.8236 10.3285 35.3446 10.4251 35.8 10.6183C36.2555 10.8115 36.6384 11.0807 36.9489 11.4257C37.2595 11.7707 37.4941 12.1882 37.6528 12.6781C37.8115 13.168 37.8909 13.7063 37.8909 14.2928V21H37.0732C36.8937 21 36.7557 20.9724 36.6591 20.9172C36.5625 20.8551 36.4866 20.7378 36.4314 20.5653L36.2244 19.5716C35.9484 19.8269 35.6793 20.0546 35.4171 20.2548C35.1548 20.448 34.8788 20.6136 34.589 20.7516C34.2992 20.8827 33.9887 20.9827 33.6574 21.0518C33.3331 21.1277 32.9709 21.1656 32.5706 21.1656C32.1635 21.1656 31.7805 21.1104 31.4217 21C31.0629 20.8827 30.7489 20.7102 30.4798 20.4825C30.2176 20.2548 30.0071 19.9684 29.8484 19.6234C29.6966 19.2714 29.6207 18.8574 29.6207 18.3813C29.6207 17.9673 29.7346 17.5705 29.9623 17.191C30.19 16.8045 30.5592 16.463 31.0698 16.1663C31.5804 15.8695 32.2463 15.628 33.0675 15.4417C33.8886 15.2485 34.8961 15.1381 36.0898 15.1105V14.2928C36.0898 13.4786 35.9139 12.8644 35.562 12.4504C35.21 12.0295 34.696 11.819 34.0197 11.819C33.5643 11.819 33.1813 11.8777 32.8708 11.995C32.5672 12.1054 32.3015 12.233 32.0738 12.3779C31.853 12.5159 31.6598 12.6436 31.4942 12.7609C31.3355 12.8713 31.1767 12.9265 31.018 12.9265C30.8938 12.9265 30.7869 12.8955 30.6972 12.8334C30.6075 12.7644 30.5316 12.6816 30.4695 12.5849L30.1382 11.995ZM47.9945 12.3779C47.9393 12.4538 47.8841 12.5125 47.8289 12.5539C47.7737 12.5953 47.6978 12.616 47.6012 12.616C47.4977 12.616 47.3838 12.5746 47.2596 12.4918C47.1354 12.4021 46.9801 12.3055 46.7938 12.202C46.6144 12.0985 46.3902 12.0053 46.121 11.9225C45.8588 11.8328 45.5345 11.788 45.1481 11.788C44.6306 11.788 44.1751 11.8811 43.7818 12.0674C43.3885 12.2468 43.0573 12.509 42.7881 12.8541C42.5259 13.1991 42.3258 13.6166 42.1878 14.1065C42.0567 14.5964 41.9912 15.145 41.9912 15.7522C41.9912 16.3871 42.0636 16.9529 42.2085 17.4497C42.3534 17.9397 42.557 18.3537 42.8192 18.6918C43.0883 19.023 43.4092 19.2783 43.7818 19.4578C44.1613 19.6303 44.5857 19.7165 45.0549 19.7165C45.5035 19.7165 45.8726 19.6648 46.1624 19.5613C46.4523 19.4509 46.6903 19.3301 46.8766 19.199C47.0699 19.0679 47.2286 18.9506 47.3528 18.8471C47.4839 18.7367 47.6115 18.6815 47.7357 18.6815C47.8876 18.6815 48.0049 18.7401 48.0877 18.8574L48.6052 19.5302C48.3775 19.8131 48.1187 20.0546 47.8289 20.2548C47.5391 20.4549 47.2251 20.6239 46.887 20.7619C46.5558 20.893 46.2073 20.9896 45.8416 21.0518C45.4759 21.1139 45.1032 21.1449 44.7237 21.1449C44.0682 21.1449 43.4575 21.0242 42.8917 20.7826C42.3327 20.5411 41.8462 20.1927 41.4322 19.7372C41.0182 19.2749 40.6939 18.7091 40.4593 18.0397C40.2246 17.3704 40.1073 16.6079 40.1073 15.7522C40.1073 14.9725 40.2143 14.2514 40.4282 13.589C40.649 12.9265 40.9664 12.3572 41.3805 11.8811C41.8014 11.3981 42.3155 11.022 42.9227 10.7529C43.5368 10.4838 44.2407 10.3492 45.0342 10.3492C45.7726 10.3492 46.4212 10.47 46.9801 10.7115C47.546 10.9461 48.0463 11.2808 48.481 11.7155L47.9945 12.3779ZM52.4357 5.75354V14.7275H52.9119C53.0499 14.7275 53.1637 14.7103 53.2534 14.6758C53.35 14.6344 53.4501 14.555 53.5536 14.4377L56.8658 10.8874C56.9624 10.7701 57.0625 10.6804 57.166 10.6183C57.2764 10.5493 57.4213 10.5148 57.6007 10.5148H59.2671L55.4064 14.624C55.22 14.8586 55.0199 15.0415 54.806 15.1726C54.9302 15.2554 55.0406 15.352 55.1372 15.4624C55.2408 15.5659 55.3374 15.6867 55.4271 15.8247L59.5259 21H57.8802C57.7214 21 57.5834 20.9758 57.4661 20.9275C57.3557 20.8723 57.2591 20.7757 57.1763 20.6377L53.7296 16.3422C53.6261 16.1973 53.5225 16.1042 53.419 16.0628C53.3224 16.0145 53.1706 15.9903 52.9636 15.9903H52.4357V21H50.583V5.75354H52.4357Z" fill="#C9C3C3"/>
<path d="M10 7.07996L0 14.5725L10 22.0651V19.2358L3.77606 14.5725L10 9.90919V7.07996Z" fill="#C9C3C3"/>
</svg>
