<svg width="211" height="69" viewBox="0 0 211 69" fill="none" xmlns="http://www.w3.org/2000/svg">
<path d="M31.2362 21.5989C34.0047 21.5989 36.1725 22.4347 37.7396 24.1063C39.3329 25.7779 40.1295 28.0632 40.1295 30.9624V43.7734H32.4507V31.981C32.4507 30.8057 32.1242 29.8915 31.4712 29.2386C30.8183 28.5856 29.9302 28.2591 28.8072 28.2591C27.6841 28.2591 26.796 28.5856 26.1431 29.2386C25.4901 29.8915 25.1636 30.8057 25.1636 31.981V43.7734H17.4848V31.981C17.4848 30.8057 17.1584 29.8915 16.5054 29.2386C15.8786 28.5856 15.0036 28.2591 13.8805 28.2591C12.7313 28.2591 11.8302 28.5856 11.1772 29.2386C10.5243 29.8915 10.1978 30.8057 10.1978 31.981V43.7734H2.519V21.7948H10.1978V24.694C10.8769 23.7537 11.7519 23.0093 12.8227 22.4608C13.9197 21.8862 15.1734 21.5989 16.5838 21.5989C18.2031 21.5989 19.6396 21.9515 20.8933 22.6567C22.1731 23.3619 23.1786 24.3544 23.91 25.6342C24.6935 24.4328 25.7252 23.4664 27.005 22.7351C28.2848 21.9776 29.6952 21.5989 31.2362 21.5989ZM54.5618 44.0477C52.3679 44.0477 50.3959 43.5906 48.646 42.6765C46.9222 41.7623 45.564 40.4564 44.5715 38.7587C43.579 37.061 43.0828 35.063 43.0828 32.7645C43.0828 30.4922 43.579 28.5072 44.5715 26.8095C45.5902 25.1119 46.9614 23.8059 48.6852 22.8918C50.4351 21.9776 52.407 21.5206 54.601 21.5206C56.7949 21.5206 58.7538 21.9776 60.4776 22.8918C62.2276 23.8059 63.5988 25.1119 64.5913 26.8095C65.6099 28.5072 66.1192 30.4922 66.1192 32.7645C66.1192 35.0368 65.6099 37.0349 64.5913 38.7587C63.5988 40.4564 62.2276 41.7623 60.4776 42.6765C58.7277 43.5906 56.7558 44.0477 54.5618 44.0477ZM54.5618 37.3875C55.6327 37.3875 56.5207 36.9957 57.2259 36.2122C57.9572 35.4025 58.3229 34.2533 58.3229 32.7645C58.3229 31.2758 57.9572 30.1396 57.2259 29.3561C56.5207 28.5725 55.6457 28.1808 54.601 28.1808C53.5563 28.1808 52.6813 28.5725 51.9761 29.3561C51.2709 30.1396 50.9183 31.2758 50.9183 32.7645C50.9183 34.2794 51.2578 35.4286 51.9369 36.2122C52.616 36.9957 53.491 37.3875 54.5618 37.3875ZM76.9221 25.6734C77.784 24.4197 78.8288 23.4272 80.0563 22.6959C81.2839 21.9646 82.6029 21.5989 84.0133 21.5989V29.787H81.8585C80.1869 29.787 78.9463 30.1135 78.1366 30.7665C77.3269 31.4194 76.9221 32.5556 76.9221 34.1749V43.7734H69.2433V21.7948H76.9221V25.6734ZM96.1295 44.0477C94.1445 44.0477 92.3685 43.7212 90.8014 43.0682C89.2604 42.3892 88.0328 41.475 87.1187 40.3258C86.2307 39.1505 85.7344 37.8315 85.6299 36.3689H93.0737C93.1782 37.0741 93.5046 37.6226 94.0531 38.0143C94.6016 38.4061 95.2807 38.602 96.0903 38.602C96.7172 38.602 97.2134 38.4714 97.5791 38.2102C97.9448 37.949 98.1276 37.6095 98.1276 37.1916C98.1276 36.6431 97.8272 36.2383 97.2265 35.9771C96.6258 35.7159 95.6333 35.4286 94.249 35.1152C92.6819 34.8018 91.376 34.4492 90.3312 34.0574C89.2865 33.6656 88.3724 33.0257 87.5888 32.1377C86.8314 31.2497 86.4527 30.0482 86.4527 28.5334C86.4527 27.2274 86.8053 26.0521 87.5105 25.0074C88.2157 23.9365 89.2473 23.0877 90.6055 22.4608C91.9898 21.834 93.6483 21.5206 95.581 21.5206C98.4541 21.5206 100.713 22.2258 102.359 23.6362C104.004 25.0466 104.958 26.901 105.219 29.1994H98.2843C98.1537 28.4942 97.8403 27.9588 97.344 27.5931C96.8739 27.2013 96.234 27.0054 95.4243 27.0054C94.7975 27.0054 94.3143 27.123 93.9748 27.358C93.6613 27.5931 93.5046 27.9196 93.5046 28.3375C93.5046 28.8598 93.805 29.2647 94.4057 29.552C95.0064 29.8132 95.9728 30.0874 97.3049 30.3747C98.8981 30.7142 100.217 31.093 101.262 31.5109C102.333 31.9288 103.26 32.6078 104.043 33.5481C104.853 34.4622 105.258 35.7159 105.258 37.3091C105.258 38.5889 104.879 39.7381 104.122 40.7568C103.39 41.7754 102.333 42.5851 100.948 43.1858C99.5902 43.7604 97.9839 44.0477 96.1295 44.0477ZM107.779 32.7645C107.779 30.4922 108.249 28.5072 109.19 26.8095C110.13 25.1119 111.436 23.8059 113.107 22.8918C114.805 21.9776 116.738 21.5206 118.906 21.5206C121.7 21.5206 124.051 22.2911 125.958 23.8321C127.864 25.3469 129.092 27.4756 129.64 30.218H121.491C121.021 28.7815 120.107 28.0632 118.749 28.0632C117.783 28.0632 117.012 28.4681 116.438 29.2777C115.889 30.0613 115.615 31.2236 115.615 32.7645C115.615 34.3055 115.889 35.4809 116.438 36.2905C117.012 37.1002 117.783 37.505 118.749 37.505C120.133 37.505 121.047 36.7868 121.491 35.3503H129.64C129.092 38.0666 127.864 40.1952 125.958 41.7362C124.051 43.2772 121.7 44.0477 118.906 44.0477C116.738 44.0477 114.805 43.5906 113.107 42.6765C111.436 41.7623 110.13 40.4564 109.19 38.7587C108.249 37.061 107.779 35.063 107.779 32.7645ZM143.056 44.0477C140.862 44.0477 138.89 43.5906 137.14 42.6765C135.416 41.7623 134.058 40.4564 133.065 38.7587C132.073 37.061 131.577 35.063 131.577 32.7645C131.577 30.4922 132.073 28.5072 133.065 26.8095C134.084 25.1119 135.455 23.8059 137.179 22.8918C138.929 21.9776 140.901 21.5206 143.095 21.5206C145.289 21.5206 147.248 21.9776 148.972 22.8918C150.721 23.8059 152.093 25.1119 153.085 26.8095C154.104 28.5072 154.613 30.4922 154.613 32.7645C154.613 35.0368 154.104 37.0349 153.085 38.7587C152.093 40.4564 150.721 41.7623 148.972 42.6765C147.222 43.5906 145.25 44.0477 143.056 44.0477ZM143.056 37.3875C144.127 37.3875 145.015 36.9957 145.72 36.2122C146.451 35.4025 146.817 34.2533 146.817 32.7645C146.817 31.2758 146.451 30.1396 145.72 29.3561C145.015 28.5725 144.14 28.1808 143.095 28.1808C142.05 28.1808 141.175 28.5725 140.47 29.3561C139.765 30.1396 139.412 31.2758 139.412 32.7645C139.412 34.2794 139.752 35.4286 140.431 36.2122C141.11 36.9957 141.985 37.3875 143.056 37.3875ZM180.225 21.7948V43.7734H172.507V40.6392C171.854 41.6317 170.953 42.4414 169.804 43.0682C168.655 43.669 167.336 43.9693 165.847 43.9693C163.287 43.9693 161.263 43.1335 159.774 41.462C158.312 39.7643 157.58 37.4658 157.58 34.5667V21.7948H165.22V33.5873C165.22 34.841 165.547 35.8334 166.2 36.5648C166.879 37.27 167.767 37.6226 168.864 37.6226C169.987 37.6226 170.875 37.27 171.528 36.5648C172.181 35.8334 172.507 34.841 172.507 33.5873V21.7948H180.225ZM197.563 37.2308V43.7734H194.233C188.617 43.7734 185.81 40.9918 185.81 35.4286V28.1808H183.106V21.7948H185.81V16.4667H193.528V21.7948H197.524V28.1808H193.528V35.5461C193.528 36.1469 193.658 36.5778 193.919 36.839C194.207 37.1002 194.677 37.2308 195.33 37.2308H197.563Z" fill="white"/>
<path d="M204.807 44.0869C203.449 44.0869 202.352 43.7212 201.516 42.9899C200.706 42.2325 200.301 41.2791 200.301 40.1299C200.301 38.9807 200.706 38.0274 201.516 37.27C202.352 36.5125 203.449 36.1338 204.807 36.1338C206.139 36.1338 207.21 36.5125 208.019 37.27C208.855 38.0274 209.273 38.9807 209.273 40.1299C209.273 41.253 208.855 42.1933 208.019 42.9507C207.21 43.7081 206.139 44.0869 204.807 44.0869Z" fill="#FF5F00"/>
<path d="M11.3136 52.9497H7.2661V64.0281H5.58254V52.9497H1.52628V51.5278H11.3136V52.9497ZM20.8798 62.6498L20.8711 64.0281H13.1685V51.5278H20.8711V52.9061H14.8608V57.0583H19.7283V58.3842H14.8608V62.6498H20.8798ZM29.8759 59.3874L27.9132 54.3018C27.8551 54.1506 27.794 53.9761 27.73 53.7784C27.6661 53.5749 27.605 53.3597 27.5468 53.1329C27.4247 53.6039 27.2997 53.9965 27.1717 54.3105L25.209 59.3874H29.8759ZM33.4001 64.0281H32.0916C31.9404 64.0281 31.8183 63.9903 31.7252 63.9147C31.6322 63.8391 31.5624 63.7431 31.5159 63.6268L30.347 60.6086H24.738L23.5691 63.6268C23.5342 63.7315 23.4673 63.8245 23.3685 63.906C23.2696 63.9874 23.1475 64.0281 23.0021 64.0281H21.6936L26.692 51.5278H28.4017L33.4001 64.0281ZM48.0507 51.5278V64.0281H46.5678V54.8426C46.5678 54.7205 46.5707 54.5896 46.5765 54.4501C46.5881 54.3105 46.5997 54.168 46.6114 54.0226L42.3196 61.8386C42.1858 62.1003 41.9823 62.2311 41.709 62.2311H41.4647C41.1914 62.2311 40.9879 62.1003 40.8541 61.8386L36.4751 53.9878C36.51 54.296 36.5274 54.5809 36.5274 54.8426V64.0281H35.0445V51.5278H36.2919C36.4431 51.5278 36.5594 51.5424 36.6408 51.5714C36.7223 51.6005 36.8008 51.6819 36.8764 51.8157L41.1943 59.5095C41.2641 59.6491 41.331 59.7944 41.3949 59.9457C41.4647 60.0969 41.5287 60.251 41.5869 60.408C41.645 60.251 41.7061 60.0969 41.77 59.9457C41.834 59.7886 41.9038 59.6403 41.9794 59.5008L46.2188 51.8157C46.2886 51.6819 46.3642 51.6005 46.4456 51.5714C46.5329 51.5424 46.6521 51.5278 46.8033 51.5278H48.0507ZM62.9946 62.8417V64.0281H56.2953V62.8417H58.9733V54.3192C58.9733 54.0634 58.982 53.8046 58.9994 53.5429L56.775 55.4532C56.6994 55.5172 56.6238 55.5579 56.5482 55.5754C56.4726 55.587 56.4029 55.587 56.3389 55.5754C56.2749 55.5637 56.2139 55.5405 56.1557 55.5056C56.1034 55.4707 56.0627 55.4329 56.0336 55.3922L55.5451 54.7205L59.2699 51.5017H60.5347V62.8417H62.9946ZM67.3925 56.247C68.0438 56.1075 68.6428 56.0377 69.1894 56.0377C69.8408 56.0377 70.4165 56.1336 70.9166 56.3256C71.4167 56.5175 71.8325 56.7821 72.164 57.1194C72.5013 57.4567 72.7543 57.855 72.9229 58.3144C73.0974 58.7738 73.1846 59.274 73.1846 59.8148C73.1846 60.4778 73.0683 61.0767 72.8357 61.6118C72.6089 62.1468 72.292 62.6062 71.8849 62.99C71.4836 63.368 71.0097 63.6588 70.463 63.8623C69.9164 64.0659 69.3261 64.1676 68.6922 64.1676C68.3258 64.1676 67.974 64.1298 67.6367 64.0542C67.2994 63.9845 66.9825 63.8885 66.6859 63.7664C66.3951 63.6443 66.1247 63.5047 65.8746 63.3477C65.6246 63.1907 65.4036 63.0249 65.2117 62.8505L65.6915 62.1875C65.7961 62.0363 65.9328 61.9607 66.1014 61.9607C66.2177 61.9607 66.3486 62.0072 66.494 62.1003C66.6394 62.1875 66.8167 62.2864 67.0261 62.3969C67.2354 62.5073 67.4797 62.6091 67.7588 62.7022C68.0438 62.7894 68.3811 62.833 68.7707 62.833C69.2069 62.833 69.5994 62.7632 69.9483 62.6237C70.2973 62.4841 70.5968 62.2864 70.8468 62.0305C71.0969 61.7688 71.2888 61.4577 71.4225 61.0971C71.5563 60.7365 71.6232 60.3324 71.6232 59.8846C71.6232 59.495 71.565 59.1431 71.4487 58.8291C71.3382 58.5151 71.1667 58.2475 70.9341 58.0266C70.7073 57.8056 70.4223 57.634 70.0792 57.5119C69.7361 57.3898 69.3348 57.3287 68.8754 57.3287C68.5614 57.3287 68.2328 57.3549 67.8897 57.4072C67.5524 57.4596 67.2064 57.5439 66.8516 57.6602L65.8746 57.3723L66.8778 51.5278H72.8008V52.2082C72.8008 52.4292 72.731 52.6124 72.5914 52.7578C72.4577 52.8974 72.2251 52.9671 71.8936 52.9671H67.9682L67.3925 56.247ZM83.235 62.8417V64.0281H76.5357V62.8417H79.2137V54.3192C79.2137 54.0634 79.2224 53.8046 79.2398 53.5429L77.0154 55.4532C76.9398 55.5172 76.8642 55.5579 76.7886 55.5754C76.713 55.587 76.6433 55.587 76.5793 55.5754C76.5153 55.5637 76.4543 55.5405 76.3961 55.5056C76.3438 55.4707 76.3031 55.4329 76.274 55.3922L75.7855 54.7205L79.5103 51.5017H80.7751V62.8417H83.235ZM87.6329 56.247C88.2842 56.1075 88.8832 56.0377 89.4298 56.0377C90.0811 56.0377 90.6569 56.1336 91.157 56.3256C91.6571 56.5175 92.0729 56.7821 92.4044 57.1194C92.7417 57.4567 92.9947 57.855 93.1633 58.3144C93.3378 58.7738 93.425 59.274 93.425 59.8148C93.425 60.4778 93.3087 61.0767 93.0761 61.6118C92.8493 62.1468 92.5323 62.6062 92.1253 62.99C91.724 63.368 91.25 63.6588 90.7034 63.8623C90.1567 64.0659 89.5665 64.1676 88.9326 64.1676C88.5662 64.1676 88.2144 64.1298 87.8771 64.0542C87.5398 63.9845 87.2229 63.8885 86.9263 63.7664C86.6355 63.6443 86.3651 63.5047 86.115 63.3477C85.865 63.1907 85.644 63.0249 85.4521 62.8505L85.9318 62.1875C86.0365 62.0363 86.1732 61.9607 86.3418 61.9607C86.4581 61.9607 86.589 62.0072 86.7344 62.1003C86.8798 62.1875 87.0571 62.2864 87.2665 62.3969C87.4758 62.5073 87.7201 62.6091 87.9992 62.7022C88.2842 62.7894 88.6215 62.833 89.0111 62.833C89.4473 62.833 89.8398 62.7632 90.1887 62.6237C90.5377 62.4841 90.8372 62.2864 91.0872 62.0305C91.3373 61.7688 91.5292 61.4577 91.6629 61.0971C91.7967 60.7365 91.8636 60.3324 91.8636 59.8846C91.8636 59.495 91.8054 59.1431 91.6891 58.8291C91.5786 58.5151 91.4071 58.2475 91.1744 58.0266C90.9476 57.8056 90.6627 57.634 90.3196 57.5119C89.9765 57.3898 89.5752 57.3287 89.1158 57.3287C88.8018 57.3287 88.4732 57.3549 88.1301 57.4072C87.7928 57.4596 87.4468 57.5439 87.092 57.6602L86.115 57.3723L87.1182 51.5278H93.0412V52.2082C93.0412 52.4292 92.9714 52.6124 92.8318 52.7578C92.6981 52.8974 92.4655 52.9671 92.134 52.9671H88.2086L87.6329 56.247Z" fill="#C9C3C3"/>
<line x1="104.276" y1="56.6963" x2="204.974" y2="56.6963" stroke="#C9C3C3" stroke-width="1.83645"/>
</svg>
